<?xml version="1.0" encoding="iso-8859-1"?>
<!-- Generator: Adobe Illustrator 19.0.0, SVG Export Plug-In . SVG Version: 6.00 Build 0)  -->
<svg version="1.1" id="Capa_1" xmlns="http://www.w3.org/2000/svg" xmlns:xlink="http://www.w3.org/1999/xlink" x="0px" y="0px"
	 viewBox="0 0 512 512" style="enable-background:new 0 0 512 512;" xml:space="preserve">
<g>
	<g>
		<polygon points="102.333,153.5 102.333,241 30,241 30,153.5 0,153.5 0,358.5 30,358.5 30,271 102.333,271 102.333,358.5 
			132.333,358.5 132.333,153.5 		"/>
	</g>
</g>
<g>
	<g>
		<path d="M407,211c-24.813,0-45,20.187-45,45s20.187,45,45,45s45-20.187,45-45S431.813,211,407,211z"/>
	</g>
</g>
<g>
	<g>
		<path d="M407,151c-44.378,0-82.414,27.675-97.757,66.673c0.164-1.788,0.267-3.593,0.267-5.423c0-32.395-26.355-58.75-58.75-58.75
			h-88.427v205h88.427c32.395,0,58.75-26.355,58.75-58.75c0-1.83-0.102-3.635-0.267-5.423C324.586,333.325,362.622,361,407,361
			c57.897,0,105-47.103,105-105C512,198.103,464.897,151,407,151z M250.76,328.5h-58.427V271h58.427
			c15.853,0,28.75,12.897,28.75,28.75C279.51,315.603,266.613,328.5,250.76,328.5z M250.76,241h-58.427v-57.5h58.427
			c15.853,0,28.75,12.897,28.75,28.75C279.51,228.103,266.613,241,250.76,241z M303.555,274.032
			c-3.356-6.861-7.993-12.986-13.624-18.032c5.631-5.046,10.268-11.171,13.624-18.032C302.536,243.828,302,249.853,302,256
			C302,262.147,302.536,268.172,303.555,274.032z M407,331c-41.355,0-75-33.645-75-75c0-41.355,33.645-75,75-75
			c41.355,0,75,33.645,75,75S448.355,331,407,331z"/>
	</g>
</g>
<g>
</g>
<g>
</g>
<g>
</g>
<g>
</g>
<g>
</g>
<g>
</g>
<g>
</g>
<g>
</g>
<g>
</g>
<g>
</g>
<g>
</g>
<g>
</g>
<g>
</g>
<g>
</g>
<g>
</g>
</svg>
